<?xml version="1.0" standalone="no"?>
<!DOCTYPE svg PUBLIC "-//W3C//DTD SVG 20010904//EN"
 "http://www.w3.org/TR/2001/REC-SVG-20010904/DTD/svg10.dtd">
<svg version="1.0" xmlns="http://www.w3.org/2000/svg"
 width="1280.000000pt" height="1280.000000pt" viewBox="0 0 1280.000000 1280.000000"
 preserveAspectRatio="xMidYMid meet">

<g transform="translate(0.000000,1280.000000) scale(0.100000,-0.100000)"
fill="#000000" stroke="none">
<path d="M6945 10220 c-21 -41 -49 -50 -153 -50 -64 0 -102 -6 -142 -21 -30
-11 -64 -23 -75 -26 -11 -3 -24 -9 -30 -13 -27 -19 -103 -32 -123 -21 -47 25
-95 15 -247 -54 -16 -8 -55 -21 -85 -30 -30 -9 -69 -20 -86 -25 -17 -6 -38
-10 -48 -10 -25 0 -86 -63 -86 -88 0 -12 10 -33 23 -48 44 -50 167 -27 167 32
0 9 5 14 12 12 21 -7 19 -25 -7 -57 -25 -29 -31 -31 -94 -31 -60 0 -76 5 -166
50 -55 28 -107 50 -116 50 -26 0 -92 -30 -106 -49 -7 -9 -13 -41 -13 -72 0
-54 2 -59 40 -93 50 -45 95 -49 134 -10 l26 27 0 -32 0 -31 86 0 c91 0 123 11
269 96 28 16 61 35 75 42 14 7 32 25 41 40 26 46 80 65 189 67 115 3 138 11
173 64 33 49 86 75 137 66 19 -3 71 -10 115 -15 44 -5 103 -12 130 -15 59 -7
110 18 121 60 14 56 -18 72 -60 30 -28 -28 -72 -32 -141 -14 -22 6 -68 14
-103 19 -70 8 -82 14 -63 33 7 7 50 13 109 15 88 3 99 6 125 30 29 27 36 69
15 90 -18 18 -26 15 -43 -18z"/>
<path d="M6652 9910 c-14 -33 -27 -45 -69 -65 -45 -22 -66 -25 -153 -25 l-102
0 -45 -45 c-25 -24 -61 -49 -79 -55 -18 -6 -63 -31 -98 -55 -93 -62 -157 -79
-290 -77 -120 2 -146 -8 -146 -55 0 -24 53 -83 75 -83 5 0 20 -3 33 -6 15 -5
22 -2 22 8 0 24 34 48 68 48 18 0 58 6 90 14 128 32 155 36 225 36 72 0 99 -7
192 -49 63 -29 112 -36 149 -22 l28 11 -42 38 c-41 36 -43 40 -42 91 2 58 9
68 72 97 117 54 138 66 157 86 33 36 39 88 13 121 -29 36 -38 34 -58 -13z"/>
<path d="M6923 9903 c-24 -5 -31 -27 -12 -39 7 -4 16 1 21 10 5 9 22 16 38 16
16 0 32 5 35 10 6 10 -38 12 -82 3z"/>
<path d="M6776 9853 c-3 -3 -6 -17 -6 -31 0 -37 -33 -76 -90 -105 -29 -15 -57
-27 -64 -27 -23 0 -76 -58 -76 -84 0 -34 75 -88 150 -108 135 -36 244 -52 437
-64 82 -5 95 -4 117 14 l25 19 -76 7 c-42 3 -94 6 -117 6 -65 0 -223 35 -301
68 -39 16 -55 29 -55 46 0 9 58 3 110 -12 155 -46 317 -75 458 -80 58 -2 102
-8 102 -13 0 -18 -49 -56 -106 -83 -62 -29 -66 -47 -13 -58 19 -4 59 -14 89
-23 30 -10 76 -21 102 -25 27 -5 54 -12 60 -17 38 -23 496 -19 559 5 35 14 47
5 136 -104 43 -52 95 -116 117 -142 21 -26 61 -73 90 -106 28 -32 54 -64 58
-70 3 -6 30 -36 58 -66 28 -30 69 -77 90 -105 33 -44 102 -124 178 -205 57
-62 92 -109 92 -123 0 -8 -6 -28 -14 -44 -8 -15 -18 -39 -24 -53 -5 -14 -17
-42 -26 -63 -9 -21 -16 -44 -16 -51 0 -8 -7 -27 -15 -42 -8 -16 -15 -37 -15
-46 0 -9 -4 -20 -10 -23 -5 -3 -10 -19 -10 -34 0 -15 -4 -31 -9 -36 -6 -6 -14
-28 -20 -50 -5 -22 -17 -65 -26 -95 -18 -61 -29 -108 -44 -187 -5 -29 -13 -59
-18 -65 -4 -7 -11 -38 -15 -68 -4 -30 -16 -120 -27 -200 -52 -372 -53 -653 -5
-1030 20 -160 20 -160 -16 -160 -20 0 -45 13 -79 43 -60 52 -158 123 -229 167
-49 30 -52 34 -37 49 8 10 15 24 15 32 -1 18 -94 84 -250 177 -69 41 -126 75
-128 77 -2 2 4 15 14 30 17 26 17 27 -12 50 -33 27 -174 107 -249 143 -113 53
-163 74 -235 97 -89 28 -110 39 -110 57 0 10 -7 39 -16 65 -12 35 -16 79 -15
158 1 98 -1 114 -21 149 -13 22 -29 41 -36 44 -8 2 -35 -19 -61 -47 -26 -28
-50 -51 -54 -51 -13 0 -7 109 7 142 8 18 20 47 26 65 25 68 153 233 180 233
15 0 27 -26 33 -68 9 -72 37 -88 98 -56 53 27 84 62 114 127 40 89 42 95 61
167 9 36 26 76 38 90 53 62 61 90 61 200 0 80 -4 112 -17 135 -9 17 -23 52
-30 79 -17 61 -71 116 -171 171 -40 22 -104 67 -141 100 -106 94 -174 125
-278 125 -55 0 -86 5 -117 21 -51 25 -135 52 -211 69 -108 24 -341 6 -500 -39
-81 -22 -287 -104 -335 -133 -26 -16 -56 -18 -235 -19 -347 -1 -501 -29 -529
-97 -19 -46 -9 -245 15 -305 l19 -48 -30 -22 c-61 -44 -239 -225 -314 -317
-108 -135 -161 -208 -161 -224 0 -9 17 -16 45 -20 25 -4 45 -12 45 -17 0 -5
-32 -46 -71 -92 -115 -132 -312 -448 -292 -467 4 -5 28 -10 53 -12 52 -4 53
-8 13 -97 -47 -103 -53 -119 -53 -133 0 -8 -3 -18 -7 -22 -4 -4 -13 -28 -21
-54 -7 -26 -17 -60 -21 -77 -44 -150 -44 -150 -73 -312 -7 -39 -16 -75 -20
-79 -5 -4 -8 -36 -8 -71 0 -81 -20 -130 -55 -139 -33 -8 -48 10 -40 46 3 14
13 68 21 120 41 256 68 369 145 601 22 63 39 121 39 127 0 7 -14 12 -34 12
-44 0 -66 9 -66 25 0 15 103 216 131 257 11 14 19 29 19 32 0 9 45 77 117 177
34 48 59 90 56 93 -4 3 -19 6 -35 6 -37 0 -36 20 4 84 110 174 263 361 408
499 l102 97 -13 75 c-16 102 -7 270 18 313 47 84 247 124 633 127 l155 1 72
37 c39 20 100 46 135 57 35 12 71 25 80 31 10 5 26 9 35 9 10 0 35 6 58 14
178 61 498 60 645 -2 101 -42 135 -52 205 -57 129 -11 193 -41 315 -148 32
-29 75 -61 96 -71 22 -11 53 -30 71 -43 17 -13 36 -23 41 -23 23 0 98 -99 114
-151 10 -30 29 -85 42 -124 14 -38 26 -90 26 -114 0 -71 -29 -172 -65 -221
-18 -25 -40 -72 -50 -105 -35 -119 -59 -177 -98 -236 -78 -115 -213 -165 -285
-104 -38 32 -48 31 -67 -5 -15 -30 -15 -31 27 -78 69 -75 81 -110 83 -237 2
-60 7 -129 14 -151 11 -40 14 -42 104 -79 153 -62 299 -132 349 -167 14 -10
29 -18 33 -18 3 0 47 -30 96 -67 81 -60 89 -69 89 -99 0 -24 6 -37 23 -45 12
-7 67 -41 121 -77 124 -82 220 -170 232 -214 6 -20 24 -43 49 -60 66 -45 69
-42 61 75 -4 56 -12 130 -17 165 -26 153 17 837 60 945 6 16 11 42 11 59 0 18
4 45 9 62 29 96 41 145 41 168 0 13 3 28 7 32 7 7 26 67 42 136 5 19 19 64 31
100 13 36 34 97 47 135 13 39 31 82 39 97 16 30 19 84 4 93 -6 4 -28 30 -49
58 -21 29 -53 68 -71 87 -18 19 -50 58 -70 85 -21 28 -47 59 -60 70 -12 11
-43 47 -68 80 -26 33 -87 107 -137 164 -49 57 -111 131 -136 165 -26 33 -60
74 -78 90 l-31 30 -89 -12 c-163 -22 -404 -9 -551 30 -41 10 -86 22 -100 24
-42 9 -193 55 -225 69 -74 32 -165 57 -225 61 -63 5 -101 12 -195 35 -35 9
-61 8 -131 -6 -102 -20 -151 -15 -238 25 -35 16 -89 32 -120 36 -63 8 -195
-11 -239 -33 -27 -13 -28 -16 -13 -32 36 -40 16 -51 -93 -51 -83 0 -161 22
-211 59 -39 29 -50 27 -90 -14 -47 -49 -118 -86 -225 -119 -265 -82 -394 -100
-611 -85 -82 5 -158 7 -170 5 -12 -3 -34 -25 -49 -48 -16 -24 -48 -63 -71 -88
-23 -25 -53 -58 -65 -75 -38 -49 -213 -258 -308 -366 -26 -31 -66 -81 -88
-110 -23 -30 -53 -65 -67 -79 -15 -13 -36 -39 -47 -56 l-19 -32 26 -63 c38
-92 48 -121 87 -244 60 -189 91 -300 107 -380 6 -33 18 -87 25 -120 8 -33 16
-80 20 -105 3 -25 12 -94 21 -155 8 -60 19 -177 24 -260 11 -158 4 -512 -11
-581 -4 -22 -13 -88 -18 -146 -13 -134 -23 -158 -68 -158 -39 0 -40 8 -19 103
37 159 52 663 28 917 -17 170 -52 384 -78 476 -8 28 -14 59 -14 69 0 10 -4 32
-9 49 -68 221 -97 310 -117 354 -13 29 -24 61 -24 72 0 27 -69 130 -86 130
-19 0 -18 16 1 24 8 3 15 12 15 20 0 12 156 218 179 236 4 3 36 40 71 83 36
43 85 102 110 132 25 29 65 77 88 107 24 29 52 63 62 74 10 12 50 62 90 110
39 49 84 105 101 124 16 19 29 40 29 46 0 21 25 23 177 14 161 -9 370 1 416
19 16 6 43 11 62 11 19 0 37 5 40 10 3 6 15 10 27 10 18 0 75 16 143 40 138
49 235 146 235 235 0 38 -34 70 -104 99 -63 26 -125 21 -168 -14 -49 -40 -61
-78 -40 -121 23 -46 68 -63 110 -42 20 10 34 25 38 42 10 45 14 52 24 46 5 -3
10 -26 10 -50 0 -38 -4 -47 -33 -69 -42 -32 -129 -36 -163 -8 -35 27 -57 80
-50 117 8 42 -3 49 -51 34 -36 -10 -69 -17 -188 -39 -66 -11 -254 -11 -330 1
-33 5 -87 14 -120 19 -33 4 -72 12 -87 15 -20 5 -28 4 -28 -6 0 -14 -76 -89
-91 -89 -5 0 -9 -9 -9 -21 0 -12 -26 -47 -62 -84 -35 -35 -74 -78 -88 -96 -14
-17 -46 -55 -71 -83 -25 -28 -54 -63 -65 -77 -10 -14 -40 -50 -66 -80 -47 -55
-108 -129 -163 -199 -16 -21 -66 -82 -110 -136 -44 -53 -89 -109 -100 -124
-11 -15 -39 -49 -62 -76 -113 -133 -133 -163 -133 -199 0 -25 6 -39 24 -50 17
-11 22 -22 18 -40 -2 -14 1 -32 8 -40 6 -8 9 -18 6 -24 -4 -5 3 -24 13 -43 11
-18 24 -51 29 -73 9 -35 18 -65 64 -200 5 -16 14 -46 18 -65 4 -19 16 -60 25
-90 9 -30 20 -73 25 -95 30 -132 36 -154 43 -161 4 -4 7 -29 7 -55 0 -27 5
-58 10 -71 24 -53 52 -388 53 -608 0 -230 -33 -634 -58 -717 -4 -12 -20 -26
-36 -32 -17 -6 -31 -19 -34 -33 -5 -19 -24 -31 -93 -57 -48 -19 -91 -38 -97
-42 -13 -12 -92 -11 -100 1 -10 16 -45 12 -52 -6 -3 -8 2 -34 12 -57 10 -23
21 -51 25 -62 4 -11 15 -38 23 -60 35 -90 39 -83 -68 -139 -119 -62 -188 -110
-248 -170 -54 -53 -61 -58 -93 -53 -29 5 -34 3 -34 -14 0 -11 69 -155 153
-322 164 -323 165 -324 192 -377 27 -50 33 -63 40 -80 23 -59 173 -335 185
-342 11 -7 38 6 100 46 47 31 91 56 98 56 6 0 20 -19 29 -42 26 -65 133 -273
187 -363 79 -132 93 -153 241 -365 35 -51 228 -291 280 -349 28 -31 66 -75 84
-99 19 -23 42 -42 52 -42 9 0 33 17 53 37 35 37 37 37 42 15 5 -16 14 -22 35
-22 24 0 28 4 31 32 2 22 9 34 21 36 22 4 22 -16 0 -40 -25 -28 -6 -35 85 -33
42 2 102 -2 132 -7 30 -6 75 -13 100 -18 25 -4 72 -15 105 -25 33 -9 74 -20
90 -25 37 -10 89 -29 132 -47 17 -7 34 -13 37 -13 21 0 318 -149 396 -199 14
-9 34 -21 45 -28 52 -32 183 -117 210 -137 17 -12 83 -61 147 -109 118 -88
158 -105 158 -66 0 16 4 19 21 14 22 -7 59 18 59 42 0 7 8 13 18 13 9 0 42 18
72 40 107 77 290 197 315 206 11 4 34 18 50 30 35 26 284 152 365 184 89 36
93 37 140 53 85 27 233 64 295 73 67 10 304 9 386 -1 62 -7 68 -6 78 14 7 11
18 21 26 21 7 0 18 15 24 33 7 19 28 44 52 61 23 16 49 42 58 58 10 15 42 55
72 87 53 58 119 141 149 186 8 12 40 56 71 96 52 70 159 226 159 234 0 2 22
39 48 82 42 68 107 196 168 330 10 24 24 43 29 43 6 0 43 -23 83 -50 41 -28
80 -50 87 -50 8 0 37 46 66 103 317 625 518 1030 514 1037 -3 5 -21 6 -40 3
-32 -5 -39 -1 -88 50 -55 58 -130 109 -252 173 -103 54 -100 47 -64 145 17 46
33 94 36 107 3 12 9 25 14 28 5 3 9 17 9 31 0 23 -3 25 -27 18 -56 -14 -115
-17 -126 -6 -6 6 -17 11 -25 11 -7 0 -50 18 -95 41 -88 43 -107 66 -107 125 0
18 -5 45 -11 60 -21 58 -32 261 -32 609 0 352 10 532 32 588 6 16 11 45 11 64
0 20 4 50 9 67 5 17 17 67 27 111 9 44 23 103 31 130 8 28 18 64 22 80 15 54
44 149 51 170 4 11 16 43 25 70 29 87 66 189 82 225 8 19 19 46 25 60 6 14 14
33 19 42 16 31 11 68 -9 68 -24 0 -42 19 -42 46 0 13 -14 34 -32 49 -18 15
-37 35 -43 45 -25 43 -89 131 -145 200 -34 41 -92 113 -128 159 -95 118 -174
216 -236 291 -54 65 -140 171 -282 347 -83 104 -104 119 -135 102 -61 -32
-444 -52 -564 -28 -27 5 -77 12 -110 15 -33 3 -69 9 -80 14 -11 5 -47 14 -80
20 -123 23 -151 29 -205 45 -30 9 -68 20 -85 25 -89 25 -231 89 -275 125 -24
20 -37 25 -44 18z m-2379 -331 c6 -4 13 -21 15 -37 2 -24 -1 -30 -17 -30 -16
0 -21 8 -23 38 -3 37 2 43 25 29z m2263 -692 c21 -21 51 -57 66 -80 36 -55 59
-54 50 2 -4 23 -11 47 -15 53 -5 5 -12 20 -15 33 -6 17 -3 22 12 22 34 0 162
-56 162 -70 0 -6 7 -10 15 -10 9 0 32 -11 53 -23 53 -34 81 -40 75 -16 -12 45
154 3 202 -52 17 -18 16 -19 -10 -29 -37 -14 -24 -25 53 -45 105 -27 216 -84
198 -102 -3 -3 -17 -1 -31 5 -32 15 -131 16 -140 2 -3 -5 -22 -10 -41 -10 -19
0 -34 -4 -34 -8 0 -24 37 -77 91 -132 68 -68 80 -110 44 -150 -16 -18 -30 -20
-126 -20 -113 0 -208 -11 -319 -36 -94 -21 -178 -18 -218 6 -57 35 -37 44 104
51 137 6 203 19 239 47 20 16 14 17 -138 17 -112 0 -161 3 -164 12 -3 7 27 13
94 17 135 9 184 16 178 25 -2 5 -43 11 -89 13 -59 4 -90 11 -101 22 -15 15
-13 16 22 16 21 0 44 4 52 9 20 13 4 31 -29 31 -56 0 -45 28 31 76 21 13 45
24 53 24 29 0 27 21 -6 50 -24 22 -42 30 -70 30 -38 0 -100 31 -127 64 -7 9
-21 16 -30 16 -9 0 -23 6 -29 13 -9 8 -45 12 -106 12 -82 0 -99 -3 -149 -29
-70 -35 -75 -56 -13 -56 32 0 50 -6 70 -25 54 -50 81 -58 185 -51 53 3 114 8
136 12 26 3 50 0 68 -9 l28 -14 -32 -7 c-62 -12 -165 -70 -222 -125 -65 -61
-151 -178 -177 -240 -16 -37 -6 -52 27 -41 49 15 92 20 98 10 3 -5 1 -12 -5
-15 -6 -4 -28 -30 -50 -59 -131 -179 -208 -473 -151 -585 35 -67 98 -138 171
-189 39 -27 83 -67 99 -89 58 -81 116 -112 259 -144 53 -11 105 -9 192 10 69
14 73 -4 23 -104 -31 -63 -67 -111 -100 -132 -24 -16 -26 -16 -43 7 -17 23
-21 24 -52 12 -20 -7 -83 -12 -144 -12 -106 0 -117 3 -162 36 -2 1 4 16 12 33
15 29 15 33 -11 87 -28 60 -93 120 -154 143 -57 21 -63 27 -72 64 -6 26 -19
43 -44 58 l-35 22 -26 -20 c-18 -13 -28 -31 -30 -53 -3 -30 -5 -32 -35 -27
-18 3 -61 10 -97 16 -77 12 -140 29 -157 43 -7 6 -13 25 -13 43 0 22 -11 48
-33 77 -27 35 -40 44 -69 46 -20 2 -50 -4 -66 -12 -28 -14 -30 -14 -54 12 -23
25 -47 70 -77 145 -6 15 -11 61 -11 102 0 75 -12 100 -33 71 -8 -10 -17 -13
-26 -7 -12 8 -12 23 -1 103 7 51 17 97 21 103 16 16 10 43 -11 48 -18 5 -19 8
-8 34 7 15 23 42 35 59 23 30 31 64 15 64 -16 0 -140 -137 -170 -188 -37 -60
-41 -97 -13 -112 20 -10 20 -11 0 -80 -35 -128 -22 -434 20 -448 6 -2 27 8 47
23 45 35 64 22 64 -44 1 -25 7 -57 15 -71 8 -14 14 -33 15 -43 0 -28 69 -162
95 -187 22 -21 34 -50 20 -50 -15 0 -123 45 -137 57 -9 8 -25 13 -35 11 -21
-4 -22 -43 -3 -123 44 -186 106 -307 218 -423 58 -61 51 -63 -167 -74 -97 -5
-213 -11 -257 -14 l-82 -5 -10 30 c-21 59 -101 121 -207 161 -45 17 -156 40
-190 40 -76 0 -145 -58 -145 -121 0 -31 24 -93 51 -131 33 -45 26 -55 -43 -62
-72 -6 -188 -28 -203 -37 -5 -4 -39 -8 -75 -10 l-65 -4 4 60 c1 33 7 83 13
110 5 28 12 70 14 95 3 25 8 52 11 60 7 17 30 107 42 165 4 22 13 51 18 65 6
14 23 66 39 115 15 50 31 94 36 100 4 5 8 18 8 28 0 10 6 31 14 45 24 46 66
156 66 173 0 17 -19 29 -48 29 -45 1 -46 16 -7 81 49 81 170 252 247 346 32
40 58 80 58 88 0 9 -11 20 -25 25 -32 12 -32 20 8 69 17 22 48 61 67 87 51 70
209 223 236 230 18 5 35 -4 70 -35 31 -27 56 -41 75 -41 25 0 30 5 40 42 8 30
28 59 71 100 58 57 59 60 53 99 -7 43 -6 44 41 27 39 -14 64 1 64 38 0 21 5
24 36 24 38 0 94 27 94 45 0 18 -74 49 -155 66 -22 4 -60 12 -85 18 -25 6 -84
10 -132 11 l-88 0 -20 -40 c-11 -22 -20 -60 -20 -87 l-1 -48 -16 29 c-11 22
-14 46 -10 90 6 73 22 113 51 123 31 11 352 5 416 -7 30 -6 78 -15 105 -20 28
-4 68 -13 90 -19 22 -6 46 -11 53 -11 15 0 16 37 1 42 -12 4 -1 38 12 38 5 0
26 10 47 23 48 30 219 100 297 121 33 9 76 21 95 27 31 8 63 11 168 17 25 2
40 -6 72 -38z m33 -187 c26 -9 47 -21 47 -25 0 -17 -105 -8 -134 11 -25 17
-26 20 -10 24 35 9 49 7 97 -10z m2457 -231 c-35 -4 -57 9 -46 27 5 7 19 5 43
-7 l36 -17 -33 -3z m-142 -3 c-12 -7 -24 -7 -35 0 -15 9 -12 10 17 10 29 0 32
-1 18 -10z m-1394 -41 c13 -49 6 -139 -14 -183 -11 -24 -24 -46 -29 -50 -6 -3
-29 5 -53 19 -39 22 -43 28 -46 67 -2 40 2 50 49 107 54 65 83 77 93 40z
m-4129 -28 c4 -6 -5 -10 -20 -10 -15 0 -24 4 -20 10 3 6 12 10 20 10 8 0 17
-4 20 -10z m131 -34 c19 -15 19 -15 -1 -30 -11 -8 -22 -14 -25 -13 -3 2 -20 9
-37 16 -18 7 -33 19 -33 27 0 19 70 19 96 0z m3764 -201 c6 -8 9 -23 5 -35 -7
-21 -29 -27 -40 -10 -3 6 -31 10 -61 10 -30 0 -54 -4 -54 -10 0 -5 -11 -10
-25 -10 -26 0 -32 19 -19 54 9 22 175 23 194 1z m-252 -39 c3 -40 -11 -90 -54
-184 -13 -29 -24 -55 -24 -57 0 -3 -14 -27 -31 -55 -36 -59 -65 -68 -54 -17 4
17 10 91 14 162 8 169 24 197 111 192 33 -2 35 -4 38 -41z m362 -6 c19 -27 20
-34 9 -92 -15 -86 -54 -178 -74 -178 -14 0 -8 239 6 278 12 30 34 28 59 -8z
m-542 -680 c4 -34 -22 -132 -42 -158 -5 -7 -7 -13 -5 -15 109 -62 162 -47 231
69 18 30 36 54 40 54 31 0 14 -103 -25 -146 -29 -34 -29 -34 -120 -34 -93 0
-136 9 -197 40 -60 31 -60 40 6 121 33 41 63 82 67 92 12 31 42 16 45 -23z
m-660 -466 c204 9 214 6 263 -60 40 -54 112 -99 183 -114 28 -5 31 -10 34 -45
4 -51 -49 -155 -79 -155 -10 0 -19 5 -19 10 0 6 -11 10 -25 10 -29 0 -50 -29
-59 -82 -13 -73 -14 -73 -258 -70 l-218 3 0 32 c0 26 -6 36 -32 50 -65 35
-121 98 -172 190 -32 58 -21 67 53 43 56 -18 171 -22 171 -6 0 6 -9 21 -21 33
-24 25 -37 54 -54 114 -15 53 -5 64 43 51 23 -7 96 -8 190 -4z m1083 -40 c16
-15 12 -21 -74 -105 l-92 -89 2 -51 c1 -41 6 -57 27 -77 l26 -26 44 21 c76 37
136 145 136 244 l0 59 28 -6 c25 -6 146 -66 234 -118 38 -21 47 -43 27 -63
-16 -16 -4 -42 26 -53 54 -21 315 -203 315 -220 0 -6 -4 -10 -9 -10 -5 0 -12
-8 -15 -17 -5 -13 10 -33 56 -75 l63 -58 -60 4 c-33 2 -91 11 -130 20 -38 9
-101 20 -140 25 -38 5 -77 11 -85 14 -8 3 -24 8 -34 11 -17 6 -15 11 20 47 36
37 39 44 39 99 0 48 -4 63 -24 84 -32 34 -49 33 -112 -10 -69 -47 -123 -98
-160 -151 -32 -46 -60 -54 -94 -29 -17 12 -18 17 -6 38 33 62 -6 110 -82 101
-36 -5 -58 -21 -119 -90 -26 -29 -28 -29 -73 -19 l-47 11 8 35 c4 19 8 80 8
135 1 138 -13 135 -93 -20 -74 -141 -85 -155 -123 -155 -41 0 -45 24 -12 73
42 62 84 154 84 186 0 9 5 33 11 54 11 40 36 50 59 22 31 -38 166 44 226 138
23 35 27 37 76 37 33 0 58 -6 69 -16z m-795 -634 c43 -6 169 -15 279 -21 273
-14 405 -24 505 -38 47 -7 123 -17 170 -22 47 -6 119 -17 161 -25 42 -8 92
-14 111 -14 19 0 48 -4 64 -10 27 -9 86 -20 216 -39 31 -5 61 -12 68 -16 6 -4
35 -11 63 -15 109 -19 156 -29 176 -39 11 -6 35 -11 55 -11 19 0 38 -4 41 -10
3 -5 17 -10 29 -10 13 0 46 -6 72 -14 27 -8 76 -22 109 -31 33 -9 71 -20 85
-25 14 -4 52 -16 85 -25 33 -10 69 -21 80 -26 11 -4 29 -10 40 -13 11 -3 52
-16 90 -29 74 -27 88 -45 67 -91 -8 -18 -26 -63 -52 -131 -32 -84 -50 -129
-73 -185 -8 -19 -23 -57 -33 -85 -9 -27 -21 -54 -26 -60 -4 -5 -8 -18 -8 -30
0 -12 -7 -30 -15 -41 -18 -23 -20 -64 -2 -64 6 0 29 24 50 53 20 28 54 70 75
92 20 22 60 68 87 102 28 35 57 63 66 63 9 0 47 -17 85 -38 38 -21 108 -58
156 -82 49 -25 88 -50 88 -57 0 -6 -63 -137 -141 -290 -78 -153 -173 -340
-211 -415 -41 -82 -76 -138 -84 -138 -8 0 -77 30 -152 66 -75 36 -146 70 -157
74 -41 17 -161 63 -195 75 -19 7 -75 25 -125 39 -49 15 -103 31 -120 36 -16 5
-49 12 -72 16 -63 10 -61 16 54 135 62 64 62 83 0 97 -23 6 -69 18 -102 27
-33 10 -76 21 -95 25 -19 5 -64 16 -100 25 -36 9 -87 20 -115 25 -27 5 -86 16
-130 25 -44 9 -107 20 -140 25 -33 4 -112 16 -175 25 -63 9 -151 20 -195 25
-44 4 -87 11 -96 14 -27 11 -260 26 -574 36 -393 13 -1124 -10 -1184 -36 -9
-4 -56 -11 -106 -15 -49 -4 -137 -15 -195 -24 -58 -9 -132 -20 -165 -25 -33
-5 -96 -16 -140 -25 -44 -9 -100 -20 -125 -24 -25 -5 -76 -16 -115 -26 -38 -9
-88 -20 -110 -25 -22 -5 -65 -16 -95 -25 -30 -9 -74 -21 -97 -27 -23 -5 -44
-16 -47 -24 -4 -9 22 -44 69 -95 41 -44 75 -85 75 -92 0 -11 -124 -47 -162
-47 -9 0 -29 -7 -44 -15 -16 -8 -39 -15 -51 -15 -12 0 -25 -4 -28 -10 -3 -5
-14 -10 -23 -10 -21 0 -232 -79 -252 -94 -8 -7 -26 -17 -40 -24 -195 -91 -247
-112 -263 -110 -25 4 -443 826 -430 847 5 7 69 44 143 83 74 38 139 73 144 78
26 26 55 9 125 -77 160 -198 182 -223 191 -223 12 0 13 42 2 55 -5 6 -17 33
-26 60 -10 28 -24 64 -30 80 -7 17 -19 46 -26 65 -6 19 -16 44 -21 55 -23 55
-62 156 -81 210 -11 33 -24 64 -29 70 -16 17 -10 65 9 71 9 3 25 10 34 15 10
5 24 9 33 9 8 0 29 6 47 14 18 8 74 26 123 41 50 15 101 31 115 35 14 5 52 16
85 25 33 9 82 23 109 31 26 8 59 14 72 14 12 0 26 5 29 10 3 6 22 10 41 10 20
0 44 5 55 11 20 10 67 20 176 39 28 4 57 11 63 15 7 4 37 11 68 16 130 19 189
30 216 39 16 6 45 10 64 10 19 0 69 6 111 14 42 8 114 19 161 25 47 6 126 16
175 22 114 15 244 24 510 39 116 6 235 15 265 19 79 12 443 13 536 1z m-678
-1371 c2 -11 -7 -20 -26 -27 l-29 -10 5 -79 c4 -69 2 -81 -13 -87 -29 -11 -35
3 -35 90 l0 84 -30 0 c-34 0 -52 26 -29 41 8 5 45 8 84 7 55 -2 70 -6 73 -19z
m197 1 c12 -13 16 -28 12 -47 -3 -16 2 -43 10 -61 15 -32 15 -34 -8 -57 -32
-32 -109 -52 -146 -39 -28 9 -28 11 -31 103 -1 52 -1 100 2 108 4 9 26 13 74
13 56 0 72 -4 87 -20z m211 -37 c14 -32 33 -73 41 -90 8 -18 12 -40 9 -49 -6
-15 -8 -15 -31 0 -27 18 -130 22 -140 6 -6 -10 -45 -14 -45 -5 0 3 16 39 35
81 19 41 35 81 35 88 0 19 11 26 41 26 25 0 32 -7 55 -57z m136 -30 l3 -88 48
-3 c68 -4 56 -26 -17 -30 -78 -4 -86 4 -86 92 0 90 7 116 31 116 16 0 19 -10
21 -87z m180 70 c1 -10 2 -49 2 -88 l1 -70 42 -3 c47 -3 76 -27 52 -43 -27
-17 -105 -11 -124 11 -16 17 -17 31 -11 106 3 48 9 90 12 95 9 15 24 10 26 -8z
m347 -4 c21 -7 31 -18 31 -31 0 -15 -4 -18 -17 -13 -10 4 -31 10 -46 13 -56 9
-92 -59 -62 -117 14 -28 20 -31 65 -31 60 0 73 -16 29 -34 -29 -12 -39 -12
-79 3 -55 20 -72 50 -67 114 5 54 21 76 70 94 41 15 39 15 76 2z m-1283 -35
c28 -29 34 -43 34 -79 0 -37 -6 -50 -35 -80 -29 -28 -43 -35 -76 -35 -71 0
-132 63 -122 127 8 50 72 103 124 103 35 0 47 -6 75 -36z m1396 -60 l3 -87 48
-15 c26 -8 47 -19 47 -23 0 -5 -34 -9 -75 -9 l-75 0 0 75 c0 75 19 145 39 145
6 0 11 -37 13 -86z m-1645 34 c26 -25 33 -40 33 -71 0 -50 -25 -93 -66 -112
-49 -23 -79 -19 -118 18 -56 54 -60 107 -10 166 23 27 32 31 77 31 44 0 56 -4
84 -32z m1819 -44 c1 -109 -1 -104 43 -104 49 0 57 11 63 83 4 53 16 76 41 77
11 0 8 -78 -5 -124 -17 -60 -44 -86 -89 -86 -27 0 -45 8 -68 29 -29 27 -31 33
-31 103 0 72 11 103 35 95 5 -2 10 -35 11 -73z m-2072 50 c27 -11 18 -21 -31
-34 -61 -16 -68 -23 -53 -50 9 -18 19 -21 53 -18 56 4 59 -14 5 -28 -39 -10
-43 -14 -49 -47 -8 -47 -16 -55 -33 -32 -14 19 -29 165 -20 189 4 9 24 16 52
19 26 2 50 4 54 5 3 1 13 -1 22 -4z m2398 -18 c38 -16 61 -54 47 -77 -5 -8 -9
-34 -9 -59 0 -69 -8 -75 -92 -73 -52 1 -76 6 -84 17 -12 17 -2 115 17 174 9
29 15 32 49 32 20 0 53 -6 72 -14z m-3536 -393 c27 -73 165 -338 219 -423 99
-153 290 -410 368 -496 l49 -53 161 -4 c89 -3 179 -8 200 -12 45 -9 59 2 241
176 65 63 131 123 146 134 25 19 273 244 420 381 124 117 164 86 59 -46 -78
-98 -186 -276 -175 -288 4 -3 74 63 158 147 l151 153 26 -29 c28 -29 102 -124
160 -202 19 -25 37 -48 40 -51 20 -16 111 -141 124 -170 21 -48 44 -257 29
-272 -13 -13 -8 -16 -138 85 -78 60 -114 79 -114 61 0 -23 160 -295 196 -334
30 -33 149 -94 168 -87 15 6 13 69 -5 137 -5 19 -9 59 -9 89 0 51 1 53 18 38
9 -9 24 -31 33 -49 62 -131 61 -131 114 -145 28 -8 61 -17 73 -20 29 -7 262
105 262 126 0 15 -69 82 -155 149 -33 26 -73 59 -90 74 -16 14 -49 41 -71 60
-139 111 -175 144 -234 209 -36 41 -116 126 -178 191 -82 85 -120 134 -142
179 -16 34 -39 72 -51 85 -14 15 -19 28 -13 33 52 47 165 140 186 154 36 22
51 22 74 -4 10 -12 96 -93 189 -179 94 -87 188 -175 211 -196 22 -22 67 -82
99 -134 32 -52 81 -120 109 -151 28 -30 79 -87 113 -126 55 -63 75 -77 185
-133 68 -34 129 -67 136 -73 9 -7 16 -7 23 0 7 7 -29 49 -111 129 -185 181
-355 354 -358 364 -6 16 29 11 98 -14 36 -13 106 -36 155 -51 50 -15 106 -33
125 -40 19 -7 76 -25 125 -40 50 -15 99 -31 110 -35 11 -5 31 -12 45 -15 28
-8 85 -44 146 -92 23 -18 52 -33 65 -33 13 -1 35 -7 49 -15 14 -8 36 -15 50
-15 14 0 43 -6 65 -14 21 -8 47 -11 56 -7 17 6 55 54 191 240 42 58 89 122
103 142 27 36 48 71 61 99 4 8 13 22 20 30 27 33 107 185 188 360 18 39 25 45
51 45 51 0 47 -23 -40 -195 -121 -241 -224 -406 -369 -591 -24 -31 -51 -70
-60 -87 -9 -17 -22 -35 -29 -39 -8 -4 -31 -33 -52 -63 -64 -91 -59 -89 -236
-90 -86 0 -169 -5 -185 -10 -16 -6 -58 -14 -94 -19 -78 -11 -156 -28 -190 -40
-14 -5 -45 -15 -70 -22 -142 -40 -388 -153 -545 -249 -44 -27 -85 -49 -91 -50
-6 0 -17 -7 -25 -16 -15 -18 -112 -84 -125 -84 -5 0 -28 -20 -52 -45 -26 -27
-58 -49 -81 -55 -27 -7 -40 -17 -47 -37 l-9 -27 -35 30 c-56 49 -276 196 -385
257 -55 32 -107 61 -115 67 -20 13 -205 104 -250 122 -19 9 -55 23 -80 33 -25
9 -54 21 -65 25 -140 56 -311 91 -530 109 -76 6 -108 5 -134 -6 -24 -9 -38
-10 -45 -3 -17 17 -36 11 -36 -10 0 -11 -4 -20 -10 -20 -5 0 -10 7 -10 16 0 8
-37 61 -82 117 -129 161 -150 187 -200 257 -26 36 -60 83 -77 105 -64 87 -183
289 -244 416 -93 194 -94 197 -71 214 34 26 51 18 70 -32z m653 -1170 c11 -24
10 -29 -11 -45 -13 -10 -31 -23 -40 -28 -37 -22 -33 36 5 78 26 28 31 28 46
-5z m-104 -92 c3 -5 1 -12 -5 -16 -5 -3 -10 1 -10 9 0 18 6 21 15 7z m1805
-572 c0 -29 -15 -40 -22 -17 -7 19 3 58 13 52 5 -3 9 -18 9 -35z m-30 -101 c0
-7 -5 -20 -10 -28 -8 -12 -10 -9 -10 13 0 15 5 27 10 27 6 0 10 -6 10 -12z"/>
<path d="M6405 8810 c-11 -4 -48 -37 -83 -73 -53 -53 -63 -69 -60 -93 3 -26 7
-29 37 -29 31 0 36 4 43 32 10 37 91 113 122 113 60 1 87 28 47 50 -23 12 -78
12 -106 0z"/>
<path d="M6877 8783 c-12 -11 -7 -41 9 -57 20 -21 60 -21 68 0 10 26 7 32 -26
48 -35 18 -42 19 -51 9z"/>
<path d="M7126 8732 c-10 -16 6 -51 26 -58 29 -9 40 15 20 42 -17 24 -37 30
-46 16z"/>
<path d="M6980 8710 c-16 -10 -4 -47 20 -60 27 -15 54 14 38 40 -14 22 -40 31
-58 20z"/>
<path d="M6123 8568 c-31 -35 -35 -46 -23 -68 22 -42 86 -11 106 52 13 41 -50
52 -83 16z"/>
<path d="M6374 8580 c-31 -12 -94 -80 -94 -101 0 -25 46 -58 71 -52 13 4 29
26 45 62 35 79 27 111 -22 91z"/>
<path d="M5979 8443 c-30 -18 -79 -95 -79 -123 0 -18 7 -20 63 -20 52 1 64 4
78 23 18 25 32 98 23 121 -8 21 -51 20 -85 -1z"/>
<path d="M6227 8392 c-23 -25 -21 -58 4 -93 36 -51 84 -29 82 38 -2 61 -52 93
-86 55z"/>
<path d="M5830 8200 c-29 -31 -42 -74 -33 -109 12 -46 134 -11 171 50 14 25
14 29 -7 58 -19 26 -29 31 -63 31 -31 0 -46 -6 -68 -30z"/>
<path d="M5953 8003 c-37 -15 -83 -77 -83 -111 0 -13 -5 -32 -11 -44 -13 -25
5 -74 33 -89 29 -15 52 -3 107 57 81 89 89 164 20 188 -27 10 -41 9 -66 -1z"/>
<path d="M5235 7861 c-39 -22 -56 -39 -77 -82 -32 -62 -34 -83 -13 -132 18
-45 47 -61 93 -54 48 8 69 31 88 96 24 83 24 169 -1 187 -25 19 -31 17 -90
-15z"/>
<path d="M6026 7689 c-22 -17 -26 -28 -26 -69 0 -39 4 -52 22 -64 31 -22 52
-20 87 10 34 29 47 76 32 117 -9 23 -16 27 -49 27 -25 0 -49 -8 -66 -21z"/>
<path d="M5048 7513 c-29 -33 -40 -108 -27 -176 24 -120 95 -187 182 -170 42
9 67 47 67 106 0 62 -47 145 -121 211 -55 50 -77 56 -101 29z"/>
<path d="M6132 7457 c-27 -29 -28 -47 -2 -79 23 -30 66 -41 111 -28 56 16 65
57 22 102 -35 37 -99 39 -131 5z"/>
<path d="M4965 7074 c-11 -3 -31 -13 -44 -23 -38 -29 -34 -101 9 -165 82 -121
199 -204 268 -191 37 7 106 64 128 106 23 46 18 117 -11 155 -27 35 -96 80
-155 102 -38 13 -162 23 -195 16z"/>
<path d="M6149 6152 c-15 -2 -44 -22 -68 -46 l-42 -43 5 -94 c16 -274 13 -257
64 -316 l46 -53 67 0 67 0 4 -62 c5 -92 0 -120 -20 -116 -12 2 -18 15 -20 41
-2 20 -5 37 -8 37 -2 0 -44 -20 -93 -45 l-89 -44 -7 -81 c-4 -45 -3 -85 1 -90
5 -4 86 -10 180 -13 l171 -5 52 48 51 47 0 96 c0 61 -4 98 -11 103 -9 5 -10
90 -7 316 4 225 2 311 -6 313 -14 5 -303 11 -337 7z m149 -275 c3 -82 2 -87
-18 -87 -18 0 -20 6 -20 83 0 46 3 87 7 91 19 19 28 -8 31 -87z"/>
<path d="M5635 6140 l-130 -5 0 -90 0 -90 77 -37 c104 -50 112 -51 118 -8 3
22 10 35 20 35 20 0 21 10 -61 -380 -38 -181 -69 -335 -69 -342 0 -10 23 -13
88 -13 48 0 92 4 99 8 6 4 37 133 68 287 50 250 59 285 87 323 29 42 31 48 29
135 l-2 92 -47 48 c-44 45 -49 47 -97 45 -27 -1 -108 -5 -180 -8z"/>
<path d="M6716 6138 c-8 -26 -51 -906 -45 -912 2 -3 45 -6 94 -8 l90 -3 8 110
c4 61 10 147 13 192 l6 82 91 3 92 3 3 81 3 81 -32 7 c-17 3 -58 6 -90 6 l-59
0 0 54 c0 29 3 68 6 86 l7 32 82 -7 c46 -4 85 -3 88 2 3 5 9 48 13 95 l7 86
-44 6 c-24 3 -108 8 -187 11 -113 5 -143 4 -146 -7z"/>
<path d="M5320 6119 l-85 -8 -44 -48 c-24 -26 -60 -68 -79 -92 l-36 -43 54
-49 c30 -27 67 -54 82 -61 25 -11 27 -18 33 -88 3 -41 10 -110 14 -152 4 -44
3 -85 -2 -94 -9 -16 -2 -192 10 -263 l6 -34 96 7 c53 4 100 11 105 16 6 6 5
62 -2 142 -7 73 -19 212 -27 308 -8 96 -17 188 -20 203 -2 15 0 36 6 45 14 22
-1 214 -16 217 -5 1 -48 -1 -95 -6z"/>
<path d="M7255 6101 c-49 -23 -89 -64 -109 -112 -18 -43 -62 -587 -52 -641 20
-106 117 -179 239 -180 105 0 174 41 213 127 19 41 26 77 31 163 7 127 14 119
-102 124 l-70 3 -7 -88 c-9 -106 -19 -127 -58 -127 -50 0 -59 28 -49 150 4 58
11 157 15 220 8 141 21 180 61 180 46 0 53 -16 53 -111 0 -101 -3 -99 105 -99
l72 0 7 109 c5 68 4 123 -3 148 -16 58 -72 118 -128 137 -64 22 -168 20 -218
-3z"/>
<path d="M8503 4924 c-26 -26 -26 -27 -8 -40 22 -16 45 -18 45 -4 0 6 7 10 16
10 30 0 8 -22 -41 -41 -49 -18 -85 -49 -85 -73 0 -16 139 -71 151 -59 5 5 11
23 12 39 2 28 0 29 -35 27 -21 -1 -38 1 -38 6 0 5 17 11 38 14 51 9 82 33 82
63 0 38 -16 61 -51 73 -46 16 -57 14 -86 -15z"/>
<path d="M4089 4900 c-9 -5 -22 -23 -29 -40 -11 -27 -14 -29 -25 -13 -11 15
-17 16 -54 3 -64 -21 -91 -64 -71 -115 17 -44 4 -41 -20 4 -16 33 -26 41 -48
41 -15 0 -32 -4 -37 -9 -6 -5 -27 -14 -47 -21 -42 -13 -53 -48 -18 -57 21 -6
35 -36 25 -53 -14 -23 -31 -6 -57 53 -31 73 -50 89 -75 64 -14 -14 -15 -21 -6
-37 7 -10 9 -22 4 -25 -14 -8 -1 -45 15 -45 16 0 35 -40 26 -54 -3 -5 -11 3
-18 16 -7 14 -26 29 -41 33 -19 4 -23 9 -14 15 9 5 11 17 7 31 -12 48 -19 51
-68 29 -25 -11 -49 -27 -52 -36 -20 -53 11 -94 71 -94 17 0 35 -5 38 -11 11
-17 -4 -24 -25 -11 -19 11 -50 7 -50 -8 0 -17 23 -70 30 -70 22 0 101 41 107
55 3 9 12 14 20 11 22 -9 255 96 261 117 3 14 11 17 31 12 34 -7 88 26 102 62
7 20 13 23 21 15 28 -28 111 0 124 40 4 13 2 24 -4 26 -5 1 -8 12 -5 23 12 45
-68 78 -118 49z m71 -90 c-20 -13 -33 -13 -25 0 3 6 14 10 23 10 15 0 15 -2 2
-10z m-95 -20 c3 -5 -2 -10 -11 -10 -10 0 -28 -9 -40 -21 -25 -23 -44 -18 -44
11 0 14 9 20 38 23 20 2 40 4 44 5 4 1 10 -2 13 -8z m-215 -113 c0 -20 -25 1
-28 24 -2 23 -2 23 13 5 8 -11 15 -24 15 -29z m-285 -17 c3 -5 -1 -10 -9 -10
-9 0 -16 5 -16 10 0 6 4 10 9 10 6 0 13 -4 16 -10z"/>
<path d="M8672 4864 c-29 -20 -62 -86 -62 -124 0 -40 39 -80 77 -80 54 1 103
66 103 139 0 66 -65 102 -118 65z m53 -71 c-8 -35 -32 -73 -46 -73 -6 0 -8 9
-3 23 12 39 34 77 45 77 7 0 9 -10 4 -27z"/>
<path d="M8817 4792 c-23 -25 -21 -39 5 -53 17 -9 24 -9 33 5 14 19 39 22 33
4 -3 -7 -28 -22 -57 -32 -53 -19 -88 -54 -78 -79 4 -11 102 -55 137 -63 3 0
35 -15 72 -32 37 -18 72 -32 78 -32 5 0 16 13 24 29 20 38 2 56 -46 46 -47
-10 -25 8 24 20 85 21 98 99 22 131 -43 18 -89 5 -100 -28 -9 -29 35 -53 51
-28 9 14 37 12 33 -2 -3 -7 -24 -18 -48 -25 -24 -7 -54 -23 -68 -35 l-24 -23
6 22 c8 26 -27 51 -47 34 -7 -5 -19 -6 -26 -2 -15 10 -6 13 56 26 35 7 63 37
63 68 0 10 -11 29 -25 42 -30 31 -93 34 -118 7z"/>
<path d="M6003 4850 c-25 -10 -31 -38 -10 -46 20 -7 67 13 67 30 0 11 -24 29
-33 25 -1 0 -12 -4 -24 -9z"/>
<path d="M5982 4738 c3 -20 9 -23 48 -23 39 0 45 3 48 23 3 20 0 22 -48 22
-48 0 -51 -2 -48 -22z"/>
<path d="M6234 4806 c-7 -31 1 -46 27 -46 22 0 25 26 5 53 -18 23 -24 22 -32
-7z"/>
<path d="M5568 4822 c-23 -14 -28 -24 -28 -55 0 -21 4 -47 10 -57 14 -27 65
-35 95 -16 21 14 25 25 25 64 0 42 -3 49 -31 65 -36 20 -36 20 -71 -1z"/>
<path d="M5329 4802 c-34 -22 -39 -32 -39 -73 0 -45 25 -69 73 -69 28 0 40 6
53 25 41 63 -29 158 -87 117z"/>
<path d="M7495 4759 c-11 -17 26 -49 57 -49 36 0 49 27 23 46 -22 17 -71 18
-80 3z"/>
<path d="M7490 4675 c-17 -21 -6 -43 26 -51 57 -14 82 29 30 51 -43 18 -41 18
-56 0z"/>
<path d="M5520 3683 c-14 -13 -54 -49 -90 -78 -36 -29 -87 -74 -115 -99 -27
-26 -62 -54 -77 -63 -33 -20 -43 -52 -20 -59 9 -3 33 -12 52 -19 19 -7 55 -18
80 -25 25 -7 60 -18 78 -26 28 -12 33 -12 38 0 3 8 -2 28 -11 44 -17 28 -17
31 7 83 14 30 36 77 48 104 12 28 31 68 41 89 35 73 18 99 -31 49z"/>
</g>
</svg>
